<svg xmlns="http://www.w3.org/2000/svg" viewBox="0 0 32 32" width="32" height="32">
<rect width="32" height="32" rx="4" fill="#0d1117"/>
<rect x="10" y="2" width="12" height="2" fill="#00e5ff"/>
<rect x="8" y="4" width="2" height="2" fill="#00e5ff"/>
<rect x="22" y="4" width="2" height="2" fill="#00e5ff"/>
<rect x="6" y="6" width="2" height="2" fill="#00bcd4"/>
<rect x="24" y="6" width="2" height="2" fill="#00bcd4"/>
<rect x="6" y="8" width="2" height="2" fill="#00bcd4"/>
<rect x="24" y="8" width="2" height="2" fill="#00bcd4"/>
<rect x="6" y="10" width="2" height="2" fill="#0097a7"/>
<rect x="24" y="10" width="2" height="2" fill="#0097a7"/>
<rect x="6" y="12" width="2" height="2" fill="#0097a7"/>
<rect x="24" y="12" width="2" height="2" fill="#0097a7"/>
<rect x="8" y="14" width="2" height="2" fill="#00838f"/>
<rect x="22" y="14" width="2" height="2" fill="#00838f"/>
<rect x="10" y="16" width="12" height="2" fill="#00838f"/>
<rect x="12" y="5" width="2" height="2" fill="#fff"/>
<rect x="14" y="5" width="2" height="2" fill="#fff"/>
<rect x="16" y="5" width="2" height="2" fill="#fff"/>
<rect x="18" y="5" width="2" height="2" fill="#fff"/>
<rect x="10" y="7" width="2" height="2" fill="#fff"/>
<rect x="10" y="9" width="2" height="2" fill="#fff"/>
<rect x="16" y="9" width="2" height="2" fill="#fff"/>
<rect x="18" y="9" width="2" height="2" fill="#fff"/>
<rect x="20" y="9" width="2" height="2" fill="#fff"/>
<rect x="10" y="11" width="2" height="2" fill="#fff"/>
<rect x="20" y="11" width="2" height="2" fill="#fff"/>
<rect x="12" y="13" width="2" height="2" fill="#fff"/>
<rect x="14" y="13" width="2" height="2" fill="#fff"/>
<rect x="16" y="13" width="2" height="2" fill="#fff"/>
<rect x="18" y="13" width="2" height="2" fill="#fff"/>
<rect x="6" y="22" width="2" height="2" fill="#ff6b6b"/>
<rect x="6" y="24" width="2" height="2" fill="#ff6b6b"/>
<rect x="6" y="26" width="2" height="2" fill="#ff6b6b"/>
<rect x="8" y="22" width="2" height="2" fill="#ff6b6b"/>
<rect x="10" y="22" width="2" height="2" fill="#ff6b6b"/>
<rect x="10" y="24" width="2" height="2" fill="#ff6b6b"/>
<rect x="12" y="22" width="2" height="2" fill="#ff6b6b"/>
<rect x="14" y="22" width="2" height="2" fill="#ff6b6b"/>
<rect x="14" y="24" width="2" height="2" fill="#ff6b6b"/>
<rect x="14" y="26" width="2" height="2" fill="#ff6b6b"/>
<rect x="18" y="22" width="2" height="2" fill="#ff6b6b"/>
<rect x="18" y="24" width="2" height="2" fill="#ff6b6b"/>
<rect x="18" y="26" width="2" height="2" fill="#ff6b6b"/>
<rect x="20" y="24" width="2" height="2" fill="#ff6b6b"/>
<rect x="22" y="24" width="2" height="2" fill="#ff6b6b"/>
<rect x="24" y="22" width="2" height="2" fill="#ff6b6b"/>
<rect x="24" y="24" width="2" height="2" fill="#ff6b6b"/>
<rect x="24" y="26" width="2" height="2" fill="#ff6b6b"/>
</svg>
